# xmcd CD database file
#
# Track frame offsets:
#	150
#	16169
#	38640
#	62687
#
# Disc length: 1132 seconds
#
# Revision: 0
# Processed by: cddbd v1.5PL3 Copyright (c) Steve Scherf et al.
# Submitted via: CDex 1.50Beta7
#
DISCID=25046a04
DTITLE=Sleep My Dear - Dear and Hate
DYEAR=1996
DGENRE=Rock and Roll
TTITLE0=Dear and Hate
TTITLE1=Invisible
TTITLE2=Rain and Reason
TTITLE3=Breath of Air -Pure Mix-
EXTD=YEAR: 19961218
EXTT0=
EXTT1=
EXTT2=
EXTT3=
PLAYORDER=
